<svg xmlns="http://www.w3.org/2000/svg" width="32" height="32" viewBox="0 0 24 24" fill="none"><path d="M8.5 14.25c0 1.92 1.58 3.5 3.5 3.5s3.5-1.58 3.5-3.5M8.81 2 5.19 5.63M15.19 2l3.62 3.63" stroke="#d9e3f0" stroke-width="1.5" stroke-miterlimit="10" stroke-linecap="round" stroke-linejoin="round"></path><path d="M2 7.85c0-1.85.99-2 2.22-2h15.56c1.23 0 2.22.15 2.22 2 0 2.15-.99 2-2.22 2H4.22C2.99 9.85 2 10 2 7.85Z" stroke="#d9e3f0" stroke-width="1.5"></path><path d="m3.5 10 1.41 8.64C5.23 20.58 6 22 8.86 22h6.03c3.11 0 3.57-1.36 3.93-3.24L20.5 10" stroke="#d9e3f0" stroke-width="1.5" stroke-linecap="round"></path></svg>